<?xml version="1.0" encoding="UTF-8"?>
<svg id="Calque_1" data-name="Calque 1" xmlns="http://www.w3.org/2000/svg" viewBox="0 0 15.96 13.72">
  <defs>
    <style>
      .cls-1 {
        fill: #496537;
      }
    </style>
  </defs>
  <path class="cls-1" d="M7.93,13.71s-.04,0-.05,0c-.49-.42-.88-.79-1.17-1.09-.07-.07-.84-.86-1.61-1.94-.13-.18-.23-.33-.33-.55-.05-.11-.28-.63-.27-1.35,0-.34.02-1.07.51-1.69.1-.13.19-.21.29-.3.57-.51,1.02-.59,1.64-.89.52-.25,1.13-.56,1.48-1.16.29-.49.31-1.01.29-1.36.19.06.6.23.9.65.31.43.48,1.11.19,1.65-.13.25-.32.38-.45.48-.44.33-.85.35-1.32.45-.62.13-1.36.28-1.91.79-.11.1-.83.75-.68,1.52.05.28.21.49.33.63.02.02.04,0,.05-.01.27-.7.64-1.15.88-1.4.98-1.02,2.28-1.33,2.58-1.39.2-.04.45-.08.87-.19.48-.13.84-.23,1.23-.45.4-.23.8-.44,1-.9.14-.32.13-.63.11-.82-.58,0-1.15.02-1.73.03-.05,0-.1-.01-.14-.05-.14-.11-.3-.27-.45-.48-.01-.01-.02-.03-.03-.04-.12-.17-.03-.41.16-.48,0,0,0,0,0,0,.15-.06.28-.13.37-.2.05-.04.09-.09.1-.15.05-.23.21-.7.66-1.07.38-.31.79-.4,1-.42.03,0,.06-.02.07-.05,0,0,.01-.02.01-.04,0-.07-.17-1.17-.2-1.33.51.18,1.49.62,2.32,1.6,1.32,1.56,1.29,3.35,1.28,3.8-.07,2.24-1.46,3.74-2.2,4.54-.56.61-1.06.97-1.57,1.36-1.02.76-2.43,1.64-4.27,2.36Z"/>
  <path class="cls-1" d="M6.2,12.92c-1.16-.47-2.83-1.36-4.25-3.01-.36-.42-1.58-1.9-1.88-3.68-.18-1.07.03-1.71.13-1.96.15-.38.35-.67.52-.87.06-.08.09-.17.08-.27-.05-.33-.08-.82.08-1.38.27-.98.93-1.55,1.17-1.75.19.44.43.91.72,1.39.12.21.25.41.38.59.27-.03.68-.06,1.17-.05.41,0,.62,0,.83.08.17.06.65.27,1,1.05.23,0,.47.01.71.01.26,0,.52,0,.77,0,.29,0,.52.27.44.55,0,0,0,0,0,0-.12.46-.35.75-.47.9-.42.53-.92.76-1.02.8-.69.3-.97.06-1.58.37-.41.21-.65.5-.82.71-.72.89-.74,1.92-.75,2.16,0,1.15.58,1.96,1.14,2.73.57.79,1.19,1.32,1.61,1.63Z"/>
</svg>