<?xml version="1.0" encoding="UTF-8"?>
<svg id="Calque_1" data-name="Calque 1" xmlns="http://www.w3.org/2000/svg" viewBox="0 0 32 32">
  <defs>
    <style>
      .cls-1 {
        fill: #496537;
      }
    </style>
  </defs>
  <path class="cls-1" d="M15.89,29.74s-.08,0-.1-.02c-.98-.83-1.76-1.59-2.35-2.19-.14-.14-1.68-1.73-3.23-3.9-.25-.35-.46-.66-.66-1.1-.1-.23-.56-1.26-.54-2.71.01-.69.03-2.14,1.03-3.39.21-.26.39-.43.59-.6,1.14-1.03,2.05-1.18,3.3-1.79,1.03-.51,2.26-1.11,2.98-2.33.58-.98.63-2.02.58-2.72.39.13,1.21.46,1.81,1.29.62.87.96,2.22.39,3.3-.26.49-.63.77-.91.97-.88.66-1.7.71-2.65.91-1.25.26-2.72.56-3.84,1.58-.23.2-1.66,1.5-1.36,3.05.11.57.41.99.66,1.26.03.04.09.02.11-.03.55-1.39,1.28-2.3,1.77-2.81,1.95-2.05,4.57-2.66,5.18-2.78.39-.08.91-.16,1.75-.39.97-.26,1.69-.46,2.46-.91.8-.46,1.6-.89,2.01-1.81.29-.65.27-1.27.22-1.65-1.15.02-2.31.03-3.46.05-.1,0-.19-.03-.27-.09-.27-.22-.6-.53-.9-.97-.02-.03-.04-.06-.06-.09-.23-.35-.06-.81.33-.97,0,0,0,0,0,0,.31-.12.55-.27.74-.41.1-.07.17-.18.2-.3.11-.45.42-1.4,1.33-2.14.77-.63,1.58-.8,2.01-.85.06,0,.12-.04.15-.09,0,0,.02-.03.03-.08.02-.14-.34-2.35-.39-2.67,1.01.37,2.99,1.24,4.65,3.2,2.65,3.12,2.59,6.72,2.57,7.62-.13,4.48-2.92,7.5-4.4,9.11-1.13,1.22-2.12,1.95-3.15,2.72-2.05,1.53-4.87,3.28-8.55,4.72Z"/>
  <path class="cls-1" d="M12.43,28.16c-2.32-.94-5.67-2.72-8.52-6.04-.72-.84-3.16-3.8-3.76-7.37-.36-2.14.07-3.43.26-3.92.3-.76.7-1.34,1.05-1.75.13-.15.18-.35.15-.55-.1-.65-.15-1.64.16-2.77.54-1.97,1.86-3.11,2.35-3.5.39.88.86,1.81,1.44,2.78.25.42.5.81.75,1.19.54-.06,1.36-.12,2.35-.1.83.01,1.25.02,1.66.16.35.12,1.31.54,2.01,2.11.46.01.94.02,1.42.02.53,0,1.04,0,1.55-.02.59-.01,1.04.53.89,1.1,0,0,0,.01,0,.02-.24.91-.7,1.51-.94,1.8-.84,1.05-1.85,1.51-2.05,1.6-1.38.61-1.93.12-3.16.74-.82.42-1.3,1-1.64,1.42-1.44,1.78-1.49,3.85-1.49,4.32,0,2.3,1.17,3.93,2.29,5.48,1.15,1.59,2.38,2.64,3.23,3.27Z"/>
</svg>